<?xml version="1.0" encoding="UTF-8"?>
<svg version="1.1" xmlns="http://www.w3.org/2000/svg" width="100" height="100">
<path d="M0 0 C33 0 66 0 100 0 C100 33 100 66 100 100 C67 100 34 100 0 100 C0 67 0 34 0 0 Z " fill="#FCFCFB" transform="translate(0,0)"/>
<path d="M0 0 C0.85521744 0.00091141 1.71043488 0.00182281 2.59156799 0.00276184 C3.46946487 -0.00152328 4.34736176 -0.00580841 5.25186157 -0.01022339 C7.11044959 -0.01597191 8.96906012 -0.01646312 10.82765198 -0.01213074 C13.67447757 -0.00897327 16.52026181 -0.03241428 19.36695862 -0.05778503 C21.17099376 -0.06005819 22.97503171 -0.06076145 24.77906799 -0.05973816 C25.6322612 -0.06894791 26.48545441 -0.07815765 27.36450195 -0.08764648 C33.30438952 -0.0410578 33.30438952 -0.0410578 35.5161438 1.66275024 C36.75172424 3.30354309 36.75172424 3.30354309 36.50172424 5.92854309 C35.75172424 8.30354309 35.75172424 8.30354309 34.75172424 9.30354309 C33.08555309 9.34418141 31.41784329 9.34626409 29.75172424 9.30354309 C29.75172424 8.31354309 29.75172424 7.32354309 29.75172424 6.30354309 C31.07172424 6.30354309 32.39172424 6.30354309 33.75172424 6.30354309 C33.75172424 5.31354309 33.75172424 4.32354309 33.75172424 3.30354309 C30.12378426 5.16920797 30.12378426 5.16920797 27.75172424 8.30354309 C27.31687781 13.2607924 27.55215645 16.29490984 29.81422424 20.74104309 C32.10945638 25.49545252 32.38551856 29.25967807 30.75172424 34.30354309 C28.23292823 38.89135012 24.57785506 41.41505712 19.75172424 43.30354309 C18.76172424 43.30354309 17.77172424 43.30354309 16.75172424 43.30354309 C16.75172424 44.95354309 16.75172424 46.60354309 16.75172424 48.30354309 C14.77172424 48.79854309 14.77172424 48.79854309 12.75172424 49.30354309 C12.75172424 46.99354309 12.75172424 44.68354309 12.75172424 42.30354309 C11.20484924 42.45823059 11.20484924 42.45823059 9.62672424 42.61604309 C4.70487216 42.21911954 3.12878614 40.8341078 -0.24827576 37.30354309 C-2.86368518 33.20606833 -3.86742208 30.15352259 -3.24827576 25.30354309 C-2.77390076 24.58166809 -2.29952576 23.85979309 -1.81077576 23.11604309 C0.61333234 18.75264852 0.88541944 14.25026536 0.75172424 9.30354309 C-0.27428239 6.19174135 -0.27428239 6.19174135 -2.24827576 4.30354309 C-3.23827576 3.97354309 -4.22827576 3.64354309 -5.24827576 3.30354309 C-5.24827576 4.29354309 -5.24827576 5.28354309 -5.24827576 6.30354309 C-3.92827576 6.63354309 -2.60827576 6.96354309 -1.24827576 7.30354309 C-1.24827576 7.96354309 -1.24827576 8.62354309 -1.24827576 9.30354309 C-3.24782322 9.34608665 -5.24869212 9.34435092 -7.24827576 9.30354309 C-8.24827576 8.30354309 -8.24827576 8.30354309 -8.43577576 5.36604309 C-8.08206034 -0.41130877 -5.05211758 0.06088129 0 0 Z " fill="#969867" transform="translate(36.24827575683594,27.696456909179688)"/>
<path d="M0 0 C0.66 0 1.32 0 2 0 C2 1.98 2 3.96 2 6 C4.475 6.495 4.475 6.495 7 7 C7.33 7.99 7.66 8.98 8 10 C5.33333333 10 2.66666667 10 0 10 C0.99 10.66 1.98 11.32 3 12 C2.67 13.32 2.34 14.64 2 16 C0.576875 15.9071875 0.576875 15.9071875 -0.875 15.8125 C-2.421875 15.9053125 -2.421875 15.9053125 -4 16 C-4.66 16.99 -5.32 17.98 -6 19 C-4.35 19 -2.7 19 -1 19 C-0.67 19.99 -0.34 20.98 0 22 C-0.66 22 -1.32 22 -2 22 C-1.95875 22.763125 -1.9175 23.52625 -1.875 24.3125 C-2 27 -2 27 -4 30 C-5.65 30 -7.3 30 -9 30 C-9 34.62 -9 39.24 -9 44 C-7.35 43.01 -5.7 42.02 -4 41 C-3.34 41 -2.68 41 -2 41 C-2.495 43.475 -2.495 43.475 -3 46 C-2.01 46.33 -1.02 46.66 0 47 C0 49.31 0 51.62 0 54 C-1.32 54.66 -2.64 55.32 -4 56 C-3.01 57.65 -2.02 59.3 -1 61 C-0.71125 60.21625 -0.4225 59.4325 -0.125 58.625 C1 56 1 56 3 54 C3.99 54 4.98 54 6 54 C6 55.65 6 57.3 6 59 C6.639375 59.144375 7.27875 59.28875 7.9375 59.4375 C10 60 10 60 11 61 C11.26919991 65.0379986 10.93137318 67.48077851 9 71 C9.84304687 71.20496094 10.68609375 71.40992187 11.5546875 71.62109375 C12.65039062 71.89050781 13.74609375 72.15992187 14.875 72.4375 C15.96554688 72.70433594 17.05609375 72.97117187 18.1796875 73.24609375 C21 74 21 74 23 75 C23 75.66 23 76.32 23 77 C17.57469705 77.45210858 14.43247982 76.55315165 9.69921875 73.875 C8.02219565 72.84739675 8.02219565 72.84739675 6 73 C5.3503125 73.7734375 5.3503125 73.7734375 4.6875 74.5625 C4.130625 75.036875 3.57375 75.51125 3 76 C0.3125 75.6875 0.3125 75.6875 -2 75 C-0.84826645 72.53199953 0.04783565 70.95216435 2 69 C1.01 68.01 0.02 67.02 -1 66 C-1.391875 66.515625 -1.78375 67.03125 -2.1875 67.5625 C-2.785625 68.036875 -3.38375 68.51125 -4 69 C-6.6875 68.6875 -6.6875 68.6875 -9 68 C-9 66.68 -9 65.36 -9 64 C-6.525 63.505 -6.525 63.505 -4 63 C-4.66 61.68 -5.32 60.36 -6 59 C-6.66 59.66 -7.32 60.32 -8 61 C-10.5 60.8125 -10.5 60.8125 -13 60 C-13.66 59.01 -14.32 58.02 -15 57 C-14 56 -14 56 -10.9375 55.9375 C-9.968125 55.958125 -8.99875 55.97875 -8 56 C-8.66 54.35 -9.32 52.7 -10 51 C-11.175625 51.061875 -11.175625 51.061875 -12.375 51.125 C-15 51 -15 51 -17 49 C-17 48.01 -17 47.02 -17 46 C-15.35 46.33 -13.7 46.66 -12 47 C-12 45.68 -12 44.36 -12 43 C-13.98 42.34 -15.96 41.68 -18 41 C-18 40.01 -18 39.02 -18 38 C-16.35 38 -14.7 38 -13 38 C-12.67 36.68 -12.34 35.36 -12 34 C-13.65 33.67 -15.3 33.34 -17 33 C-17.33 31.68 -17.66 30.36 -18 29 C-13.125 29.875 -13.125 29.875 -12 31 C-10.68 26.71 -9.36 22.42 -8 18 C-9.32 17.34 -10.64 16.68 -12 16 C-12 14.35 -12 12.7 -12 11 C-9.53199953 12.15173355 -7.95216435 13.04783565 -6 15 C-6 14.01 -6 13.02 -6 12 C-6.66 11.34 -7.32 10.68 -8 10 C-7.625 7.375 -7.625 7.375 -7 5 C-3.125 6.75 -3.125 6.75 -2 9 C-0.9986012 5.99580359 -0.48578543 3.12290635 0 0 Z " fill="#BCBE9F" transform="translate(23,12)"/>
<path d="M0 0 C0.66 0 1.32 0 2 0 C2 1.98 2 3.96 2 6 C1.34 6.33 0.68 6.66 0 7 C0 8.65 0 10.3 0 12 C0.66 12 1.32 12 2 12 C2.66 10.68 3.32 9.36 4 8 C4.66 8 5.32 8 6 8 C6 9.98 6 11.96 6 14 C4.68 14.33 3.36 14.66 2 15 C2.04640625 16.23234375 2.0928125 17.4646875 2.140625 18.734375 C2.56492685 34.86600504 -0.36089201 45.58770734 -11 58 C-10.34 58.61875 -9.68 59.2375 -9 59.875 C-7 62 -7 62 -7 64 C-9.97 64.495 -9.97 64.495 -13 65 C-13.66 63.68 -14.32 62.36 -15 61 C-16.21236328 61.54140625 -16.21236328 61.54140625 -17.44921875 62.09375 C-18.51785156 62.5578125 -19.58648437 63.021875 -20.6875 63.5 C-22.27111328 64.19609375 -22.27111328 64.19609375 -23.88671875 64.90625 C-26.85627816 65.94950801 -28.89195063 66.23065301 -32 66 C-31.67 65.01 -31.34 64.02 -31 63 C-28.12109375 61.859375 -28.12109375 61.859375 -24.4375 60.75 C-13.57747772 57.15976237 -8.09677561 51.09616059 -3 41 C-1.60618348 37.85907318 -0.72247628 35.10435009 -0.375 31.6875 C-0.25125 30.470625 -0.1275 29.25375 0 28 C-1.65 27.67 -3.3 27.34 -5 27 C-5 25.68 -5 24.36 -5 23 C-3.35 23.33 -1.7 23.66 0 24 C-0.495 21.525 -0.495 21.525 -1 19 C-2.65 18.67 -4.3 18.34 -6 18 C-6.495 15.525 -6.495 15.525 -7 13 C-6.01 12.67 -5.02 12.34 -4 12 C-6.475 11.505 -6.475 11.505 -9 11 C-9 10.01 -9 9.02 -9 8 C-7.35 7.67 -5.7 7.34 -4 7 C-4.33 5.68 -4.66 4.36 -5 3 C-4.01 3 -3.02 3 -2 3 C-1.34 2.01 -0.68 1.02 0 0 Z " fill="#C5C6AC" transform="translate(87,23)"/>
<path d="M0 0 C2.9156164 3.54039134 5.50127818 7.1626772 8 11 C8.28875 10.21625 8.5775 9.4325 8.875 8.625 C10 6 10 6 12 4 C12.99 4 13.98 4 15 4 C15 5.65 15 7.3 15 9 C15.9590625 9.2165625 15.9590625 9.2165625 16.9375 9.4375 C19 10 19 10 20 11 C20.26919991 15.0379986 19.93137318 17.48077851 18 21 C18.84304687 21.20496094 19.68609375 21.40992187 20.5546875 21.62109375 C21.65039062 21.89050781 22.74609375 22.15992187 23.875 22.4375 C24.96554688 22.70433594 26.05609375 22.97117187 27.1796875 23.24609375 C30 24 30 24 32 25 C32 25.66 32 26.32 32 27 C26.57469705 27.45210858 23.43247982 26.55315165 18.69921875 23.875 C17.02219565 22.84739675 17.02219565 22.84739675 15 23 C14.3503125 23.7734375 14.3503125 23.7734375 13.6875 24.5625 C13.130625 25.036875 12.57375 25.51125 12 26 C9.3125 25.6875 9.3125 25.6875 7 25 C8.15173355 22.53199953 9.04783565 20.95216435 11 19 C10.01 18.01 9.02 17.02 8 16 C7.608125 16.515625 7.21625 17.03125 6.8125 17.5625 C6.214375 18.036875 5.61625 18.51125 5 19 C2.3125 18.6875 2.3125 18.6875 0 18 C0 16.68 0 15.36 0 14 C1.65 13.67 3.3 13.34 5 13 C4.34 11.68 3.68 10.36 3 9 C2.34 9.66 1.68 10.32 1 11 C-1.5 10.8125 -1.5 10.8125 -4 10 C-4.66 9.01 -5.32 8.02 -6 7 C-5 6 -5 6 -1.9375 5.9375 C-0.4834375 5.9684375 -0.4834375 5.9684375 1 6 C0.67 4.02 0.34 2.04 0 0 Z " fill="#A0A276" transform="translate(14,62)"/>
<path d="M0 0 C0.33 0 0.66 0 1 0 C1.8374043 15.72459195 -1.84483249 26.15230457 -12 38 C-11.34 38.61875 -10.68 39.2375 -10 39.875 C-8 42 -8 42 -8 44 C-10.97 44.495 -10.97 44.495 -14 45 C-14.66 43.68 -15.32 42.36 -16 41 C-17.21236328 41.54140625 -17.21236328 41.54140625 -18.44921875 42.09375 C-19.51785156 42.5578125 -20.58648437 43.021875 -21.6875 43.5 C-22.74324219 43.9640625 -23.79898438 44.428125 -24.88671875 44.90625 C-27.85627816 45.94950801 -29.89195063 46.23065301 -33 46 C-32.67 45.01 -32.34 44.02 -32 43 C-29.12109375 41.859375 -29.12109375 41.859375 -25.4375 40.75 C-15.63334629 37.50882419 -10.2322427 32.52094879 -5.25 23.53125 C-1.43157956 15.79894862 -0.42135763 8.58697786 0 0 Z " fill="#999B6C" transform="translate(88,43)"/>
<path d="M0 0 C1.32 0 2.64 0 4 0 C4 11.88 4 23.76 4 36 C2.68 36 1.36 36 0 36 C0 24.12 0 12.24 0 0 Z " fill="#EDEDE6" transform="translate(45,31)"/>
<path d="M0 0 C1.32 0 2.64 0 4 0 C3.90460937 0.68964844 3.80921875 1.37929688 3.7109375 2.08984375 C2.8128386 9.70279835 2.63251123 16.44876685 7 23 C6.80544803 28.25290324 5.73162168 31.26837832 2 35 C1.34 35 0.68 35 0 35 C0 23.45 0 11.9 0 0 Z " fill="#EFEFE8" transform="translate(58,31)"/>
<path d="M0 0 C1.32 0 2.64 0 4 0 C4 11.55 4 23.1 4 35 C-0.20964159 32.89517921 -1.0889792 32.10869472 -3 28 C-3.68401753 24.38447879 -2.75621713 22.44369256 -1 19.375 C2.22615352 13.3786864 1.84920292 6.4346248 0 0 Z " fill="#F5F5F0" transform="translate(39,31)"/>
<path d="M0 0 C0.99 0.33 1.98 0.66 3 1 C2.979375 1.804375 2.95875 2.60875 2.9375 3.4375 C2.70366379 5.93354885 2.70366379 5.93354885 4 7 C4.99 5.68 5.98 4.36 7 3 C9 5 9 5 9.0625 8.0625 C9.041875 9.031875 9.02125 10.00125 9 11 C9.33 11.33 9.66 11.66 10 12 C11.32 10.68 12.64 9.36 14 8 C15 9 15 9 15.0625 11.5625 C15.041875 12.366875 15.02125 13.17125 15 14 C14.01 14.33 13.02 14.66 12 15 C10.79117904 17.00016466 10.79117904 17.00016466 10 19 C8.35 18.67 6.7 18.34 5 18 C4.67 17.01 4.34 16.02 4 15 C5.65 15 7.3 15 9 15 C8.01 13.68 7.02 12.36 6 11 C5.34 11.66 4.68 12.32 4 13 C2.68 13 1.36 13 0 13 C0.66 11.35 1.32 9.7 2 8 C1.34 7.34 0.68 6.68 0 6 C-0.125 2.875 -0.125 2.875 0 0 Z " fill="#B5B795" transform="translate(70,9)"/>
<path d="M0 0 C0 1.65 0 3.3 0 5 C0.9590625 5.2165625 0.9590625 5.2165625 1.9375 5.4375 C4 6 4 6 5 7 C5.25 9.875 5.25 9.875 5 13 C3.484375 14.6953125 3.484375 14.6953125 2 16 C0.85050412 15.21366078 -0.29448989 14.42073742 -1.4375 13.625 C-2.39462891 12.96371094 -2.39462891 12.96371094 -3.37109375 12.2890625 C-5 11 -5 11 -6 9 C-6.45528455 3.6504065 -6.45528455 3.6504065 -4.6875 1.125 C-3 0 -3 0 0 0 Z " fill="#F0F1EA" transform="translate(29,66)"/>
<path d="M0 0 C0.99 0 1.98 0 3 0 C3 11.55 3 23.1 3 35 C2.01 35 1.02 35 0 35 C0 23.45 0 11.9 0 0 Z " fill="#FDFDFD" transform="translate(52,32)"/>
<path d="M0 0 C3.2449157 3.82436493 5.92130535 7.44286173 8 12 C7.25 15.4375 7.25 15.4375 6 18 C4.35 18.33 2.7 18.66 1 19 C0.34 17.68 -0.32 16.36 -1 15 C-0.34 14.34 0.32 13.68 1 13 C2.32 13 3.64 13 5 13 C4.34 11.68 3.68 10.36 3 9 C2.34 9.66 1.68 10.32 1 11 C-1.5 10.8125 -1.5 10.8125 -4 10 C-4.66 9.01 -5.32 8.02 -6 7 C-5 6 -5 6 -1.9375 5.9375 C-0.4834375 5.9684375 -0.4834375 5.9684375 1 6 C0.67 4.02 0.34 2.04 0 0 Z " fill="#AAAC85" transform="translate(14,62)"/>
<path d="M0 0 C0.33 0 0.66 0 1 0 C1.33 11.55 1.66 23.1 2 35 C2.99 35 3.98 35 5 35 C5 35.66 5 36.32 5 37 C4.01 37 3.02 37 2 37 C2 39.31 2 41.62 2 44 C1.01 44 0.02 44 -1 44 C-1 41.69 -1 39.38 -1 37 C-1.99 37 -2.98 37 -4 37 C-4 36.34 -4 35.68 -4 35 C-2.515 34.505 -2.515 34.505 -1 34 C-0.67 22.78 -0.34 11.56 0 0 Z " fill="#8B8D57" transform="translate(50,33)"/>
<path d="M0 0 C0.99 0 1.98 0 3 0 C3.33 0.66 3.66 1.32 4 2 C5.32 2 6.64 2 8 2 C7.67 3.32 7.34 4.64 7 6 C6.01 6 5.02 6 4 6 C3.67 7.32 3.34 8.64 3 10 C-0.34373475 9.44271087 -3.03312999 8.64826111 -6 7 C-5.67 5.35 -5.34 3.7 -5 2 C-4.34 2 -3.68 2 -3 2 C-3 3.32 -3 4.64 -3 6 C-2.34 5.67 -1.68 5.34 -1 5 C-0.34444881 2.47266765 -0.34444881 2.47266765 0 0 Z " fill="#D8D9C7" transform="translate(34,7)"/>
<path d="M0 0 C0.33 0 0.66 0 1 0 C1.44379174 6.70618632 1.25598228 11.20391769 -2.17578125 17.0078125 C-3.67734988 20.63719638 -2.79698388 24.2576409 -2 28 C-3.32 27.67 -4.64 27.34 -6 27 C-7.4608 18.9216 -7.4608 18.9216 -5.625 15.25 C-5.08875 14.5075 -4.5525 13.765 -4 13 C-3.65939189 11.33480481 -3.32441604 9.66842534 -3 8 C-2.34 7.67 -1.68 7.34 -1 7 C-0.59270772 4.67843403 -0.25561323 2.3431213 0 0 Z " fill="#949765" transform="translate(40,35)"/>
<path d="M0 0 C4.75 0.75 4.75 0.75 7 3 C7.1953125 5.6015625 7.1953125 5.6015625 7.125 8.625 C7.10695313 9.62789062 7.08890625 10.63078125 7.0703125 11.6640625 C7.03550781 12.82035156 7.03550781 12.82035156 7 14 C4.69 13.34 2.38 12.68 0 12 C0 11.01 0 10.02 0 9 C1.65 9 3.3 9 5 9 C5.33 7.68 5.66 6.36 6 5 C4.35 4.67 2.7 4.34 1 4 C0.67 2.68 0.34 1.36 0 0 Z " fill="#C6C7AD" transform="translate(5,41)"/>
<path d="M0 0 C0.3125 3.3125 0.3125 3.3125 0 7 C-2.5 8.9375 -2.5 8.9375 -5 10 C-6.85776765 6.86501708 -7.20140476 4.62528568 -7 1 C-4.53721199 -0.231394 -2.7204945 -0.07159196 0 0 Z " fill="#EFF0E9" transform="translate(23,59)"/>
<path d="M0 0 C2.97 0.495 2.97 0.495 6 1 C5.125 5.75 5.125 5.75 4 8 C2.35 8 0.7 8 -1 8 C-1.33 8.66 -1.66 9.32 -2 10 C-1.54177532 6.53058454 -1.10868317 3.32604951 0 0 Z " fill="#E7E7DC" transform="translate(15,34)"/>
<path d="M0 0 C0.99 0.33 1.98 0.66 3 1 C3.33 3.64 3.66 6.28 4 9 C2.68 9.33 1.36 9.66 0 10 C0 7 0 7 1 5 C-0.65 5.33 -2.3 5.66 -4 6 C-4.66 5.01 -5.32 4.02 -6 3 C-4.02 3 -2.04 3 0 3 C0 2.01 0 1.02 0 0 Z " fill="#BABC9C" transform="translate(64,7)"/>
<path d="M0 0 C0.33 1.98 0.66 3.96 1 6 C-1.375 6.625 -1.375 6.625 -4 7 C-4.66 6.34 -5.32 5.68 -6 5 C-6 3.68 -6 2.36 -6 1 C-3.92446352 0.4465236 -2.15634036 0 0 0 Z " fill="#E0E0D2" transform="translate(86,35)"/>
<path d="M0 0 C4.875 2.625 4.875 2.625 6 6 C4.02 6.33 2.04 6.66 0 7 C-0.99 5.35 -1.98 3.7 -3 2 C-2.01 1.34 -1.02 0.68 0 0 Z " fill="#A8AB82" transform="translate(74,81)"/>
<path d="M0 0 C0.66 0 1.32 0 2 0 C3.125 6.75 3.125 6.75 2 9 C0.68 8.34 -0.64 7.68 -2 7 C-1.125 2.25 -1.125 2.25 0 0 Z " fill="#A8AA82" transform="translate(68,71)"/>
<path d="M0 0 C1.134375 0.020625 2.26875 0.04125 3.4375 0.0625 C3.7675 0.7225 4.0975 1.3825 4.4375 2.0625 C3.4475 3.5475 3.4475 3.5475 2.4375 5.0625 C0.0625 4.75 0.0625 4.75 -2.5625 4.0625 C-3.2225 3.0725 -3.8825 2.0825 -4.5625 1.0625 C-3.5625 0.0625 -3.5625 0.0625 0 0 Z " fill="#ACAE88" transform="translate(12.5625,67.9375)"/>
<path d="M0 0 C0.66 0 1.32 0 2 0 C2 1.32 2 2.64 2 4 C3.65 4.33 5.3 4.66 7 5 C7.33 5.99 7.66 6.98 8 8 C4.65626525 7.44271087 1.96687001 6.64826111 -1 5 C-0.67 3.35 -0.34 1.7 0 0 Z " fill="#B6B896" transform="translate(29,9)"/>
<path d="M0 0 C2.31 0.33 4.62 0.66 7 1 C6.67 1.99 6.34 2.98 6 4 C1.25 5.125 1.25 5.125 -1 4 C-0.67 2.68 -0.34 1.36 0 0 Z " fill="#A2A479" transform="translate(81,76)"/>
<path d="M0 0 C0.125 2.875 0.125 2.875 0 6 C-0.66 6.66 -1.32 7.32 -2 8 C-2.99 8 -3.98 8 -5 8 C-5.36625971 3.48279689 -5.36625971 3.48279689 -3.625 1.1875 C-2 0 -2 0 0 0 Z " fill="#A2A57A" transform="translate(28,66)"/>
<path d="M0 0 C1.32 0.66 2.64 1.32 4 2 C4 3.98 4 5.96 4 8 C2.68 7.67 1.36 7.34 0 7 C-0.38133299 5.0085944 -0.71325582 3.00720923 -1 1 C-0.67 0.67 -0.34 0.34 0 0 Z " fill="#A3A67B" transform="translate(73,66)"/>
<path d="M0 0 C1.485 0.99 1.485 0.99 3 2 C3.1875 5.125 3.1875 5.125 3 8 C1.68 8 0.36 8 -1 8 C-1.125 2.25 -1.125 2.25 0 0 Z " fill="#A3A57A" transform="translate(31,71)"/>
<path d="M0 0 C1.2065625 0.0309375 1.2065625 0.0309375 2.4375 0.0625 C2.4375 1.3825 2.4375 2.7025 2.4375 4.0625 C0.7875 4.3925 -0.8625 4.7225 -2.5625 5.0625 C-3.125 3.125 -3.125 3.125 -3.5625 1.0625 C-2.5625 0.0625 -2.5625 0.0625 0 0 Z " fill="#A6A980" transform="translate(88.5625,67.9375)"/>
<path d="M0 0 C1.32 0.66 2.64 1.32 4 2 C4 3.65 4 5.3 4 7 C3.01 7 2.02 7 1 7 C0.34 6.34 -0.32 5.68 -1 5 C-0.625 2.375 -0.625 2.375 0 0 Z " fill="#A7AA81" transform="translate(78,60)"/>
<path d="M0 0 C0.99 0.33 1.98 0.66 3 1 C2.979375 1.804375 2.95875 2.60875 2.9375 3.4375 C2.70366379 5.93354885 2.70366379 5.93354885 4 7 C4.66 6.34 5.32 5.68 6 5 C6 6.32 6 7.64 6 9 C3.13275314 8.42655063 2.1385485 8.1385485 0 6 C-0.125 2.875 -0.125 2.875 0 0 Z " fill="#C1C3A6" transform="translate(70,9)"/>
<path d="M0 0 C0.33 0.99 0.66 1.98 1 3 C0.01 4.485 0.01 4.485 -1 6 C-2.32 5.67 -3.64 5.34 -5 5 C-4.67 3.68 -4.34 2.36 -4 1 C-2.68 0.67 -1.36 0.34 0 0 Z " fill="#ADAF89" transform="translate(95,40)"/>
<path d="M0 0 C2.95749791 3.46741134 5.07848152 6.86873527 7 11 C6.01 11 5.02 11 4 11 C3.32591692 9.73308493 2.66099503 8.46129251 2 7.1875 C1.62875 6.47980469 1.2575 5.77210937 0.875 5.04296875 C0 3 0 3 0 0 Z " fill="#9EA073" transform="translate(14,62)"/>
<path d="M0 0 C0.66 0 1.32 0 2 0 C2 1.98 2 3.96 2 6 C0.68 6.33 -0.64 6.66 -2 7 C-2.125 4.625 -2.125 4.625 -2 2 C-1.34 1.34 -0.68 0.68 0 0 Z " fill="#A0A377" transform="translate(21,60)"/>
<path d="M0 0 C0.33 0 0.66 0 1 0 C1.05391993 1.79133978 1.09275571 3.58313899 1.125 5.375 C1.14820313 6.37273438 1.17140625 7.37046875 1.1953125 8.3984375 C1 11 1 11 -1 13 C-1.66 12.67 -2.32 12.34 -3 12 C-3 10.68 -3 9.36 -3 8 C-2.34 7.67 -1.68 7.34 -1 7 C-0.59270772 4.67843403 -0.25561323 2.3431213 0 0 Z " fill="#ADAF89" transform="translate(40,35)"/>
<path d="M0 0 C0.66 0 1.32 0 2 0 C2 0.66 2 1.32 2 2 C3.32 2.33 4.64 2.66 6 3 C6 3.66 6 4.32 6 5 C4.02 5 2.04 5 0 5 C-0.5625 3.0625 -0.5625 3.0625 -1 1 C-0.67 0.67 -0.34 0.34 0 0 Z " fill="#9A9D6E" transform="translate(29,32)"/>
<path d="M0 0 C0.625 1.875 0.625 1.875 1 4 C-1 6 -1 6 -3.625 6.125 C-4.40875 6.08375 -5.1925 6.0425 -6 6 C-6 5.01 -6 4.02 -6 3 C-4.68 3 -3.36 3 -2 3 C-1.67 2.34 -1.34 1.68 -1 1 C-0.67 0.67 -0.34 0.34 0 0 Z " fill="#979A6A" transform="translate(72,31)"/>
<path d="M0 0 C1.32 0 2.64 0 4 0 C3.34 1.65 2.68 3.3 2 5 C0.68 5 -0.64 5 -2 5 C-1.125 1.125 -1.125 1.125 0 0 Z " fill="#A5A77D" transform="translate(91,58)"/>
<path d="M0 0 C2.475 0.495 2.475 0.495 5 1 C5.33 2.32 5.66 3.64 6 5 C4.35 4.67 2.7 4.34 1 4 C0.67 2.68 0.34 1.36 0 0 Z " fill="#A5A77D" transform="translate(6,58)"/>
<path d="M0 0 C1.32 0 2.64 0 4 0 C3.67 1.65 3.34 3.3 3 5 C1.35 4.67 -0.3 4.34 -2 4 C-1.34 2.68 -0.68 1.36 0 0 Z " fill="#A6A87F" transform="translate(92,49)"/>
<path d="M0 0 C0.66 0 1.32 0 2 0 C2 1.98 2 3.96 2 6 C0.68 6.33 -0.64 6.66 -2 7 C-2.125 4.625 -2.125 4.625 -2 2 C-1.34 1.34 -0.68 0.68 0 0 Z " fill="#A6A980" transform="translate(91,31)"/>
<path d="M0 0 C0.99 0.33 1.98 0.66 3 1 C3 2.98 3 4.96 3 7 C1.68 6.34 0.36 5.68 -1 5 C-0.67 3.35 -0.34 1.7 0 0 Z " fill="#ACAE88" transform="translate(16,17)"/>
<path d="M0 0 C0.33 0 0.66 0 1 0 C1.34833144 4.87664009 0.41685712 7.77050005 -2 12 C-2.66 11.01 -3.32 10.02 -4 9 C-3.3203125 6.73828125 -3.3203125 6.73828125 -2.125 4.3125 C-1.73570313 3.50425781 -1.34640625 2.69601563 -0.9453125 1.86328125 C-0.63335937 1.24839844 -0.32140625 0.63351563 0 0 Z " fill="#A1A478" transform="translate(85,61)"/>
<path d="M0 0 C-0.33 1.65 -0.66 3.3 -1 5 C-2.32 5.33 -3.64 5.66 -5 6 C-4.625 3.5625 -4.625 3.5625 -4 1 C-2 0 -2 0 0 0 Z " fill="#A7A980" transform="translate(21,53)"/>
<path d="M0 0 C0.66 0 1.32 0 2 0 C1.67 1.98 1.34 3.96 1 6 C-0.32 6 -1.64 6 -3 6 C-2.42655063 3.13275314 -2.1385485 2.1385485 0 0 Z " fill="#A4A67C" transform="translate(17,45)"/>
<path d="M0 0 C1.65 0 3.3 0 5 0 C4.67 1.32 4.34 2.64 4 4 C2.35 4 0.7 4 -1 4 C-0.67 2.68 -0.34 1.36 0 0 Z " fill="#A2A479" transform="translate(21,24)"/>
<path d="M0 0 C0.66 0.33 1.32 0.66 2 1 C2 2.65 2 4.3 2 6 C0.68 6 -0.64 6 -2 6 C-1.125 1.125 -1.125 1.125 0 0 Z " fill="#A9AB83" transform="translate(83,17)"/>
<path d="M0 0 C1.32 0.33 2.64 0.66 4 1 C3.67 2.32 3.34 3.64 3 5 C1.35 4.67 -0.3 4.34 -2 4 C-1.34 2.68 -0.68 1.36 0 0 Z " fill="#989A6B" transform="translate(23,83)"/>
<path d="M0 0 C2 1.25 2 1.25 4 3 C4 4.32 4 5.64 4 7 C2.68 6.67 1.36 6.34 0 6 C0 4.02 0 2.04 0 0 Z " fill="#9FA275" transform="translate(8,31)"/>
<path d="M0 0 C0.66 0 1.32 0 2 0 C2 1.98 2 3.96 2 6 C1.01 6.33 0.02 6.66 -1 7 C-1.625 5.1875 -1.625 5.1875 -2 3 C-1.34 2.01 -0.68 1.02 0 0 Z " fill="#A1A378" transform="translate(87,23)"/>
<path d="M0 0 C0.33 1.32 0.66 2.64 1 4 C1.66 4 2.32 4 3 4 C3 4.66 3 5.32 3 6 C1.35 6.66 -0.3 7.32 -2 8 C-2.125 5.125 -2.125 5.125 -2 2 C-1.34 1.34 -0.68 0.68 0 0 Z " fill="#EBEBE2" transform="translate(27,10)"/>
<path d="M0 0 C2.5 1.3125 2.5 1.3125 5 3 C5 3.99 5 4.98 5 6 C3.68 5.67 2.36 5.34 1 5 C0.67 3.35 0.34 1.7 0 0 Z " fill="#9DA072" transform="translate(80,53)"/>
<path d="M0 0 C1.32 0.33 2.64 0.66 4 1 C4 2.32 4 3.64 4 5 C2.68 4.67 1.36 4.34 0 4 C0 2.68 0 1.36 0 0 Z " fill="#A2A479" transform="translate(82,46)"/>
<path d="M0 0 C1.65 0 3.3 0 5 0 C5 1.32 5 2.64 5 4 C3.35 3.67 1.7 3.34 0 3 C0 2.01 0 1.02 0 0 Z " fill="#A4A77D" transform="translate(78,31)"/>
<path d="M0 0 C1.65 0 3.3 0 5 0 C5.33 0.99 5.66 1.98 6 3 C4.35 3.33 2.7 3.66 1 4 C0.67 2.68 0.34 1.36 0 0 Z " fill="#A1A478" transform="translate(17,31)"/>
<path d="M0 0 C1.98 0.99 1.98 0.99 4 2 C4 3.32 4 4.64 4 6 C2.68 5.67 1.36 5.34 0 5 C0 3.35 0 1.7 0 0 Z " fill="#A1A378" transform="translate(11,23)"/>
<path d="M0 0 C1.65 0 3.3 0 5 0 C5.33 1.32 5.66 2.64 6 4 C4.35 3.67 2.7 3.34 1 3 C0.67 2.01 0.34 1.02 0 0 Z " fill="#A0A376" transform="translate(74,24)"/>
<path d="M0 0 C2 1.375 2 1.375 4 3 C4 3.66 4 4.32 4 5 C2.35 5 0.7 5 -1 5 C-1.33 5.66 -1.66 6.32 -2 7 C-1.125 2.25 -1.125 2.25 0 0 Z " fill="#F6F6F2" transform="translate(75,19)"/>
<path d="M0 0 C0.33 0.99 0.66 1.98 1 3 C1.66 3.33 2.32 3.66 3 4 C2.34 4 1.68 4 1 4 C0.67 5.32 0.34 6.64 0 8 C-0.99 7.34 -1.98 6.68 -3 6 C-2.67 4.68 -2.34 3.36 -2 2 C-1.67 2.33 -1.34 2.66 -1 3 C-0.67 2.01 -0.34 1.02 0 0 Z " fill="#CCCDB5" transform="translate(15,56)"/>
<path d="M0 0 C1.65 0 3.3 0 5 0 C5 1.32 5 2.64 5 4 C3.35 3.67 1.7 3.34 0 3 C0 2.01 0 1.02 0 0 Z " fill="#9FA275" transform="translate(5,50)"/>
<path d="M0 0 C2.475 0.495 2.475 0.495 5 1 C5 1.99 5 2.98 5 4 C3.35 3.67 1.7 3.34 0 3 C0 2.01 0 1.02 0 0 Z " fill="#9EA074" transform="translate(80,37)"/>
<path d="M0 0 C1.32 0 2.64 0 4 0 C3.67 1.32 3.34 2.64 3 4 C1.68 4 0.36 4 -1 4 C-0.67 2.68 -0.34 1.36 0 0 Z " fill="#9EA174" transform="translate(16,37)"/>
<path d="M0 0 C3 3.875 3 3.875 3 5 C1.35 5 -0.3 5 -2 5 C-2 4.34 -2 3.68 -2 3 C-2.66 2.67 -3.32 2.34 -4 2 C-2.68 1.34 -1.36 0.68 0 0 Z " fill="#EEEEE7" transform="translate(81,26)"/>
<path d="M0 0 C0.99 0.33 1.98 0.66 3 1 C3 2.98 3 4.96 3 7 C2.01 7.495 2.01 7.495 1 8 C0.67 5.36 0.34 2.72 0 0 Z " fill="#EFEFE8" transform="translate(67,8)"/>
<path d="M0 0 C1.41377341 2.63904371 2.37240135 5.07120629 3 8 C1.68 7.67 0.36 7.34 -1 7 C-0.67 4.69 -0.34 2.38 0 0 Z " fill="#9C9E70" transform="translate(35,55)"/>
<path d="M0 0 C2.475 0.495 2.475 0.495 5 1 C5 1.99 5 2.98 5 4 C3.35 3.67 1.7 3.34 0 3 C0 2.01 0 1.02 0 0 Z " fill="#9EA073" transform="translate(5,41)"/>
<path d="M0 0 C1.32 0 2.64 0 4 0 C3.67 1.32 3.34 2.64 3 4 C1.68 3.67 0.36 3.34 -1 3 C-0.67 2.01 -0.34 1.02 0 0 Z " fill="#B5B795" transform="translate(38,9)"/>
</svg>
